# xmcd
#
# Track frame offsets: 
#        150
#        18692
#        34744
#        66953
#        85852
#        125111
#        151723
#        168605
#        188669
#        207974
#        229658
#        246339
#        270734
#        292996
#
# Disc length: 4192 seconds
#
# Revision: 0
# Processed by: cddbd v1.5.2PL0 Copyright (c) Steve Scherf et al.
# Submitted via: ExactAudioCopy v0.99pb5
#
DISCID=c5105e0e
DTITLE=John Mark McMillan - The Medicine
DYEAR=2008
DGENRE=
TTITLE0=Reckoning Day
TTITLE1=The Medicine
TTITLE2=Skeleton Bones
TTITLE3=Carbon Ribs
TTITLE4=Dress Us Up
TTITLE5=Death in His Game
TTITLE6=Belly of the Lion
TTITLE7=Philadelphia
TTITLE8=Out of the Ground
TTITLE9=Ten Thousand
TTITLE10=Carolina Tide
TTITLE11=My Only
TTITLE12=Between the Cracks
TTITLE13=How He Loves
EXTD=
EXTT0=
EXTT1=
EXTT2=
EXTT3=
EXTT4=
EXTT5=
EXTT6=
EXTT7=
EXTT8=
EXTT9=
EXTT10=
EXTT11=
EXTT12=
EXTT13=
PLAYORDER=
